<svg width="48" height="49" viewBox="0 0 48 49" fill="none" xmlns="http://www.w3.org/2000/svg">
<path d="M18.0055 5.01083L0 22.5726V43.4131H28.9667L47.3185 25.505V5H18.0055V5.01083ZM43.7477 21.6204C43.7477 21.8693 43.7152 22.1074 43.6611 22.3238C43.6611 22.3454 43.6503 22.3562 43.6395 22.3779C43.6178 22.4428 43.5745 22.5077 43.5204 22.5618L28.0903 37.8621C27.9171 38.0353 27.7224 38.2084 27.5276 38.3599C27.5276 38.3599 27.5168 38.3599 27.5168 38.3707C26.3481 39.2796 24.909 39.7882 23.4158 39.7774L9.16504 39.7233C7.56359 39.7125 6.67631 38.0245 7.33636 36.7368C7.43375 36.5529 8.22365 34.8107 11.2101 34.7783L21.9333 34.8216C23.3184 34.8324 24.6493 34.2805 25.6232 33.3175L29.7025 29.2598L34.9938 24.0118C34.9938 24.0118 29.3563 23.6114 27.5384 23.9793C27.5168 23.9793 27.4843 23.9901 27.4627 24.001C26.2399 25.2129 23.6971 27.7341 22.5393 28.8919C22.2255 29.2057 21.8035 29.368 21.3707 29.368L5.8323 29.3031C4.45808 29.3031 3.35438 28.1885 3.34356 26.8143V26.7819C3.34356 26.533 3.37603 26.2949 3.44095 26.0677C3.44095 26.0677 3.44095 26.0677 3.44095 26.0569C3.46259 25.9703 3.51669 25.8837 3.58161 25.8188L19.0118 10.5185C19.239 10.2913 19.4662 10.0965 19.7151 9.91256C20.8513 9.06855 22.2471 8.60326 23.6863 8.60326L37.9478 8.65737C39.5384 8.66819 40.4366 10.3562 39.7765 11.6438C39.6791 11.8278 38.8892 13.5699 35.9027 13.6024L25.1795 13.5591C23.7945 13.5483 22.4744 14.1001 21.4897 15.0632L17.3995 19.1209L12.1082 24.3689C12.1082 24.3689 17.7458 24.7692 19.5745 24.3905C19.5961 24.3905 19.6286 24.3797 19.6502 24.3689C20.8729 23.157 23.4158 20.6358 24.5736 19.478C24.8874 19.175 25.2985 19.0018 25.7422 19.0018L41.2806 19.0668C42.6548 19.0668 43.7585 20.1813 43.7693 21.5555L43.7477 21.6204Z" fill="#F2AF81"/>
</svg>
