<svg width="48" height="48" viewBox="0 0 48 48" fill="none" xmlns="http://www.w3.org/2000/svg">
<path d="M8.18856 32.8304C8.18856 34.3755 8.80233 35.8573 9.89485 36.9498C10.9874 38.0423 12.4692 38.6561 14.0142 38.6561C14.0142 39.9437 14.5257 41.1785 15.4361 42.0889C16.3466 42.9993 17.5814 43.5108 18.8689 43.5108C20.1565 43.5108 21.3913 42.9993 22.3017 42.0889C23.2122 41.1785 23.7236 39.9437 23.7236 38.6561C23.7236 39.9437 24.2351 41.1785 25.1456 42.0889C26.056 42.9993 27.2908 43.5108 28.5784 43.5108C29.8659 43.5108 31.1007 42.9993 32.0112 42.0889C32.9216 41.1785 33.4331 39.9437 33.4331 38.6561C34.4659 38.6562 35.4801 38.3817 36.3719 37.8608C37.2637 37.3399 38.001 36.5912 38.5082 35.6916C39.0155 34.7919 39.2744 33.7736 39.2585 32.7409C39.2427 31.7082 38.9525 30.6983 38.4179 29.8147C39.747 29.5579 40.9453 28.8463 41.807 27.8022C42.6686 26.7582 43.1399 25.4467 43.1399 24.0929C43.1399 22.7392 42.6686 21.4277 41.807 20.3836C40.9453 19.3395 39.747 18.628 38.4179 18.3712C38.953 17.4875 39.2436 16.4774 39.2597 15.4444C39.2758 14.4115 39.017 13.3928 38.5097 12.4928C38.0024 11.5929 37.2649 10.844 36.3728 10.323C35.4808 9.80194 34.4662 9.52752 33.4331 9.52781C33.4331 8.24026 32.9216 7.00544 32.0112 6.09501C31.1007 5.18457 29.8659 4.6731 28.5784 4.6731C27.2908 4.6731 26.056 5.18457 25.1456 6.09501C24.2351 7.00544 23.7236 8.24026 23.7236 9.52781C23.7236 8.24026 23.2122 7.00544 22.3017 6.09501C21.3913 5.18457 20.1565 4.6731 18.8689 4.6731C17.5814 4.6731 16.3466 5.18457 15.4361 6.09501C14.5257 7.00544 14.0142 8.24026 14.0142 9.52781C12.9814 9.52772 11.9672 9.8022 11.0754 10.3231C10.1836 10.844 9.44629 11.5927 8.93906 12.4923C8.43182 13.392 8.17288 14.4103 8.18876 15.443C8.20463 16.4757 8.49475 17.4856 9.0294 18.3692C7.70025 18.626 6.50198 19.3376 5.64032 20.3817C4.77866 21.4258 4.30737 22.7373 4.30737 24.091C4.30737 25.4447 4.77866 26.7562 5.64032 27.8003C6.50198 28.8444 7.70025 29.5559 9.0294 29.8128C8.47885 30.723 8.18806 31.7666 8.18856 32.8304Z" stroke="white" stroke-width="2.53289" stroke-linecap="round" stroke-linejoin="round"/>
<path d="M14.9852 28.9467L18.5621 18.2159C18.6519 17.9481 18.8236 17.7152 19.0528 17.5503C19.2821 17.3854 19.5574 17.2966 19.8399 17.2966C20.1223 17.2966 20.3976 17.3854 20.6269 17.5503C20.8562 17.7152 21.0279 17.9481 21.1176 18.2159L24.6946 28.9467M30.5203 17.2954V28.9467M16.9271 25.063H22.7527" stroke="white" stroke-width="2.53289" stroke-linecap="round" stroke-linejoin="round"/>
</svg>
