<svg width="659" height="610" viewBox="0 0 659 610" fill="none" xmlns="http://www.w3.org/2000/svg">
<path d="M0.385254 50.3004C0.385254 22.5202 22.9055 0 50.6856 0H608.181C635.961 0 658.482 22.5202 658.482 50.3004V591.556C658.482 601.498 650.423 609.556 640.482 609.556H18.3853C8.44413 609.556 0.385254 601.498 0.385254 591.556V50.3004Z" fill="#46FFD1"/>
<g clip-path="url(#clip0_2004_587)">
<g clip-path="url(#clip1_2004_587)">
<g clip-path="url(#clip2_2004_587)">
<path d="M330.456 240.749C332.744 240.749 334.997 240.898 337.093 241.247C339.157 241.513 341.194 241.963 343.179 242.592C345.158 243.185 347.12 243.951 349.064 244.888C350.959 245.788 352.907 246.888 354.854 248.084C358.146 250.18 361.385 251.874 364.686 253.227C371.182 255.833 378.054 257.381 385.041 257.812C388.574 258.074 392.233 258.207 396.017 258.213V293.142C396.017 299.772 395.17 306.077 393.476 312.055C391.848 317.96 389.536 323.654 386.586 329.022C383.649 334.382 380.173 339.429 376.212 344.085C372.194 348.848 367.84 353.319 363.184 357.462C358.463 361.613 353.497 365.476 348.313 369.032C343.121 372.642 337.899 375.968 332.648 379.013L330.552 380.262L328.457 379.013C323.07 375.896 317.809 372.566 312.686 369.032C307.475 365.515 302.507 361.649 297.816 357.462C293.163 353.318 288.812 348.848 284.796 344.085C280.849 339.407 277.358 334.364 274.37 329.022C271.473 323.629 269.164 317.941 267.48 312.055C265.787 305.895 264.947 299.531 264.983 293.142V258.213C268.767 258.207 272.429 258.074 275.968 257.812C279.458 257.574 282.926 257.075 286.342 256.318C289.686 255.567 293.031 254.572 296.323 253.227C299.738 251.847 303.013 250.142 306.102 248.136C309.945 245.639 313.839 243.797 317.681 242.583C321.819 241.316 326.129 240.697 330.456 240.749ZM387.232 266.797C380.623 266.473 374.075 265.368 367.725 263.505C361.411 261.617 355.396 258.844 349.859 255.271C346.986 253.39 343.869 251.912 340.594 250.878C337.321 249.891 333.918 249.403 330.5 249.429C327.056 249.408 323.628 249.896 320.327 250.878C317.049 251.881 313.936 253.361 311.089 255.271C305.54 258.86 299.51 261.644 293.179 263.54C286.991 265.339 280.503 266.439 273.715 266.841V293.185C273.715 298.966 274.466 304.52 275.968 309.846C277.499 315.135 279.608 320.239 282.255 325.066C284.935 329.944 288.094 334.542 291.686 338.793C295.327 343.081 299.213 347.071 303.404 350.861C307.596 354.651 311.988 358.161 316.581 361.392C321.221 364.628 325.86 367.589 330.5 370.272C335.25 367.512 339.879 364.549 344.375 361.392C349.004 358.17 353.42 354.652 357.596 350.861C361.787 347.071 365.682 343.081 369.323 338.793C372.914 334.542 376.073 329.944 378.754 325.066C381.387 320.244 383.464 315.138 384.945 309.846C386.494 304.429 387.264 298.819 387.232 293.185V266.797Z" fill="white"/>
<path fill-rule="evenodd" clip-rule="evenodd" d="M363.009 281.87L359.166 278.569L355.621 278.874L317.549 323.827L304.582 305.315L301.089 304.721L297.046 307.612L296.444 311.105L313.113 334.908L315.008 335.956L318.999 336.201L321.042 335.31L363.262 285.406L363.009 281.87Z" fill="white"/>
</g>
<path d="M410.212 205.854H248.65C227.622 205.854 210.576 222.901 210.576 243.929V365.67C210.576 386.698 227.622 403.745 248.65 403.745H410.212C431.24 403.745 448.287 386.698 448.287 365.67V243.929C448.287 222.901 431.24 205.854 410.212 205.854Z" stroke="white" stroke-opacity="0.3" stroke-width="3.31083"/>
<path d="M412.224 199.233H246.653C223.075 199.233 203.961 218.347 203.961 241.924V367.675C203.961 391.253 223.075 410.367 246.653 410.367H412.224C435.802 410.367 454.916 391.253 454.916 367.675V241.924C454.916 218.347 435.802 199.233 412.224 199.233Z" stroke="white" stroke-opacity="0.08" stroke-width="9.9325"/>
<path d="M433.176 147.17H225.687C184.931 147.17 151.892 180.209 151.892 220.965V388.632C151.892 429.388 184.931 462.427 225.687 462.427H433.176C473.932 462.427 506.971 429.388 506.971 388.632V220.965C506.971 180.209 473.932 147.17 433.176 147.17Z" stroke="white" stroke-opacity="0.15" stroke-width="3.31083"/>
<path d="M483.476 94.7739H175.387C133.474 94.7739 99.4961 128.751 99.4961 170.665V438.933C99.4961 480.846 133.474 514.824 175.387 514.824H483.476C525.39 514.824 559.367 480.846 559.367 438.933V170.665C559.367 128.751 525.39 94.7739 483.476 94.7739Z" stroke="white" stroke-opacity="0.05" stroke-width="3.31083"/>
<path d="M527.491 565.732H131.376C85.6544 565.732 48.5898 528.667 48.5898 482.946V126.652C48.5898 80.9303 85.6544 43.8657 131.376 43.8657H527.491C573.213 43.8657 610.277 80.9303 610.277 126.652V482.946C610.277 528.667 573.213 565.732 527.491 565.732Z" stroke="white" stroke-opacity="0.1" stroke-width="2.09585"/>
</g>
</g>
<defs>
<clipPath id="clip0_2004_587">
<rect width="565.879" height="526.058" fill="white" transform="translate(46.4941 41.7695)"/>
</clipPath>
<clipPath id="clip1_2004_587">
<rect width="565.879" height="526.058" fill="white" transform="translate(46.4941 41.7695)"/>
</clipPath>
<clipPath id="clip2_2004_587">
<rect width="139.713" height="139.713" fill="white" transform="translate(259.998 240.75)"/>
</clipPath>
</defs>
</svg>
