<svg width="268" height="40" viewBox="0 0 268 40" fill="none" xmlns="http://www.w3.org/2000/svg">
<path d="M18.1164 0.745061L0.110924 18.3069V39.1473H29.0777L47.4294 21.2393V0.73423H18.1164V0.745061ZM43.8586 17.3547C43.8586 17.6035 43.8261 17.8416 43.772 18.058C43.772 18.0797 43.7612 18.0905 43.7504 18.1121C43.7287 18.177 43.6855 18.2419 43.6314 18.296L28.2012 33.5964C28.0281 33.7695 27.8333 33.9426 27.6385 34.0941C27.6385 34.0941 27.6277 34.0941 27.6277 34.1049C26.4591 35.0139 25.0199 35.5224 23.5267 35.5116L9.27596 35.4575C7.67451 35.4467 6.78723 33.7587 7.44729 32.471C7.54467 32.2871 8.33458 30.545 11.3211 30.5125L22.0443 30.5558C23.4293 30.5666 24.7602 30.0148 25.7341 29.0517L29.8134 24.994L35.1047 19.746C35.1047 19.746 29.4672 19.3457 27.6493 19.7136C27.6277 19.7136 27.5952 19.7244 27.5736 19.7352C26.3509 20.9471 23.808 23.4683 22.6502 24.6261C22.3364 24.9399 21.9144 25.1022 21.4816 25.1022L5.94322 25.0373C4.56901 25.0373 3.4653 23.9228 3.45448 22.5485V22.5161C3.45448 22.2672 3.48695 22.0292 3.55187 21.8019C3.55187 21.8019 3.55187 21.8019 3.55187 21.7911C3.57351 21.7045 3.62761 21.618 3.69254 21.5531L19.1227 6.25274C19.3499 6.02551 19.5772 5.83074 19.826 5.64679C20.9622 4.80278 22.3581 4.33749 23.7972 4.33749L38.0587 4.3916C39.6494 4.40242 40.5475 6.09042 39.8874 7.37807C39.79 7.56202 39.0001 9.30414 36.0137 9.3366L25.2904 9.29332C23.9054 9.2825 22.5853 9.83435 21.6006 10.7974L17.5104 14.8551L12.2192 20.1031C12.2192 20.1031 17.8567 20.5035 19.6854 20.1247C19.707 20.1247 19.7395 20.1139 19.7611 20.1031C20.9838 18.8912 23.5267 16.37 24.6845 15.2122C24.9983 14.9092 25.4095 14.7361 25.8531 14.7361L41.3915 14.801C42.7657 14.801 43.8694 15.9155 43.8802 17.2897L43.8586 17.3547Z" fill="#F2AF81"/>
<path d="M65.5105 21.852C59.2887 21.7654 51.7684 22.0576 51.7684 13.7257C51.7684 6.97365 57.9036 5.39384 65.2616 5.30728C69.4492 5.264 73.3879 5.71846 77.0128 6.44344V10.4254C73.0308 9.5706 67.9019 8.96465 64.2012 9.0404C60.0137 9.15942 56.313 10.2198 56.313 13.8339C56.313 17.7834 60.4249 17.9024 65.8676 17.9024C71.3104 17.9024 78.4736 17.7834 78.4736 26.0287C78.4736 31.7636 73.6368 34.6527 63.9956 34.5229C59.3644 34.4796 54.6467 33.7546 51.7576 33.2677V29.1991C53.9974 29.5238 59.3212 30.6599 64.5259 30.7032C70.7044 30.7465 73.9181 29.1992 73.9181 25.8231C73.9289 22.1333 70.066 21.8953 65.5105 21.852Z" fill="white"/>
<path d="M91.6974 5.70753H100.397L113.003 34.1657H108.123L105.191 27.3812H86.8931L83.9607 34.1657H79.0806L91.6974 5.70753ZM103.643 23.7238L97.6704 9.77607H94.4134L88.4404 23.7238H103.643Z" fill="white"/>
<path d="M108.718 5.70753H113.598L124.05 30.0971H127.307L137.76 5.70753H142.64L130.034 34.1657H121.334L108.718 5.70753Z" fill="white"/>
<path d="M168.437 22.3392V5.67553H172.949V22.3392C172.949 30.1517 167.257 34.5773 158.72 34.5773C150.139 34.5773 144.448 30.1517 144.448 22.3392V5.67553H149.003V22.3392C149.003 27.9551 153.028 30.8009 158.72 30.8009C164.336 30.7901 168.437 27.9443 168.437 22.3392Z" fill="white"/>
<path d="M177.622 5.70753H182.177L199.501 26.5696H200.15V5.70753H204.706V34.1657H200.15L182.87 13.3469H182.177V34.1657H177.622V5.70753Z" fill="white"/>
<path d="M209.77 5.70753H234.571V9.68951H214.325V17.2531H231.325V21.2351H214.325V30.1837H234.571V34.1657H209.77V5.70753Z" fill="white"/>
<path d="M249.45 23.3994L235.589 5.71854H240.956L251.116 19.0928H252.177L262.294 5.71854H267.704L254.006 23.2046V34.1767H249.45V23.3994Z" fill="white"/>
</svg>
