<svg width="659" height="610" viewBox="0 0 659 610" fill="none" xmlns="http://www.w3.org/2000/svg">
<path d="M0.0966797 50.3004C0.0966797 22.5202 22.6169 0 50.397 0H607.893C635.673 0 658.193 22.5202 658.193 50.3004V591.556C658.193 601.498 650.134 609.556 640.193 609.556H18.3967C8.28987 609.556 0.0966797 601.363 0.0966797 591.256V50.3004Z" fill="#7C0AFF"/>
<g clip-path="url(#clip0_2004_512)">
<path d="M145.417 305.036C145.417 277.943 123.454 255.979 96.3608 255.979C69.2678 255.979 47.3047 277.943 47.3047 305.036C47.3047 332.129 69.2678 354.092 96.3608 354.092C123.454 354.092 145.417 332.129 145.417 305.036Z" fill="#FFF9E3"/>
<path d="M142.35 305.035C142.35 279.636 121.76 259.045 96.3602 259.045C70.9606 259.045 50.3701 279.636 50.3701 305.035C50.3701 330.435 70.9606 351.026 96.3602 351.026C121.76 351.026 142.35 330.435 142.35 305.035Z" fill="#FFDE6A"/>
<path d="M96.2044 279.535C82.0155 279.535 70.4902 291.06 70.4902 305.249C70.4902 319.438 82.0155 330.963 96.2044 330.963C110.393 330.963 121.919 319.438 121.919 305.249C121.919 291.06 110.393 279.535 96.2044 279.535ZM96.2044 327.007C84.2045 327.007 74.4463 317.249 74.4463 305.249C74.4463 293.249 84.2045 283.491 96.2044 283.491C108.204 283.491 117.963 293.249 117.963 305.249C117.963 317.249 108.204 327.007 96.2044 327.007Z" fill="black"/>
<path d="M95.5458 298.656C95.5458 295.385 92.8821 292.722 89.6118 292.722C86.3415 292.722 83.6777 295.385 83.6777 298.656C83.6777 301.926 86.3415 304.59 89.6118 304.59C92.8821 304.59 95.5458 301.926 95.5458 298.656ZM87.6338 298.656C87.6338 297.574 88.5305 296.678 89.6118 296.678C90.6931 296.678 91.5898 297.574 91.5898 298.656C91.5898 299.737 90.6931 300.634 89.6118 300.634C88.5305 300.634 87.6338 299.737 87.6338 298.656Z" fill="black"/>
<path d="M102.798 305.909C99.528 305.909 96.8643 308.572 96.8643 311.843C96.8643 315.113 99.528 317.777 102.798 317.777C106.069 317.777 108.732 315.113 108.732 311.843C108.732 308.572 106.069 305.909 102.798 305.909ZM102.798 313.821C101.717 313.821 100.82 312.924 100.82 311.843C100.82 310.761 101.717 309.865 102.798 309.865C103.88 309.865 104.776 310.761 104.776 311.843C104.776 312.924 103.88 313.821 102.798 313.821Z" fill="black"/>
<path d="M105.515 295.939C104.75 295.174 103.484 295.174 102.719 295.939L86.8949 311.763C86.1301 312.528 86.1301 313.794 86.8949 314.559C87.2905 314.954 87.7916 315.139 88.2927 315.139C88.7938 315.139 89.2949 314.954 89.6905 314.559L105.515 298.734C106.279 297.97 106.279 296.704 105.515 295.939Z" fill="black"/>
<path d="M140.817 305.036C140.817 280.483 120.913 260.579 96.3604 260.579C71.8074 260.579 51.9033 280.483 51.9033 305.036C51.9033 329.589 71.8074 349.493 96.3604 349.493C120.913 349.493 140.817 329.589 140.817 305.036Z" stroke="white" stroke-opacity="0.5" stroke-width="3.06601"/>
<path d="M551.663 245.248H241.996C208.977 245.248 182.209 272.016 182.209 305.035C182.209 338.055 208.977 364.822 241.996 364.822H551.663C584.682 364.822 611.45 338.055 611.45 305.035C611.45 272.016 584.682 245.248 551.663 245.248Z" fill="#FFF9E3"/>
<path d="M551.663 248.315H241.996C210.67 248.315 185.275 273.71 185.275 305.036C185.275 336.362 210.67 361.757 241.996 361.757H551.663C582.989 361.757 608.384 336.362 608.384 305.036C608.384 273.71 582.989 248.315 551.663 248.315Z" fill="#FFDE6A"/>
<path d="M278.514 292.144H282.693L289.064 303.23H289.326L295.697 292.144H299.877L291.029 306.958V316.532H287.361V306.958L278.514 292.144ZM307.757 316.901C306.043 316.901 304.546 316.508 303.268 315.722C301.99 314.936 300.997 313.837 300.291 312.423C299.584 311.01 299.231 309.359 299.231 307.47C299.231 305.572 299.584 303.913 300.291 302.492C300.997 301.071 301.99 299.967 303.268 299.181C304.546 298.396 306.043 298.003 307.757 298.003C309.472 298.003 310.969 298.396 312.247 299.181C313.525 299.967 314.517 301.071 315.224 302.492C315.93 303.913 316.284 305.572 316.284 307.47C316.284 309.359 315.93 311.01 315.224 312.423C314.517 313.837 313.525 314.936 312.247 315.722C310.969 316.508 309.472 316.901 307.757 316.901ZM307.769 313.912C308.881 313.912 309.802 313.618 310.532 313.031C311.262 312.443 311.802 311.661 312.151 310.685C312.509 309.708 312.687 308.633 312.687 307.458C312.687 306.291 312.509 305.219 312.151 304.242C311.802 303.258 311.262 302.468 310.532 301.873C309.802 301.277 308.881 300.98 307.769 300.98C306.65 300.98 305.721 301.277 304.983 301.873C304.252 302.468 303.709 303.258 303.351 304.242C303.002 305.219 302.827 306.291 302.827 307.458C302.827 308.633 303.002 309.708 303.351 310.685C303.709 311.661 304.252 312.443 304.983 313.031C305.721 313.618 306.65 313.912 307.769 313.912ZM331.845 308.946V298.241H335.417V316.532H331.916V313.364H331.726C331.305 314.341 330.63 315.154 329.701 315.805C328.78 316.448 327.633 316.77 326.26 316.77C325.085 316.77 324.045 316.512 323.14 315.996C322.243 315.472 321.536 314.698 321.02 313.674C320.512 312.65 320.258 311.383 320.258 309.875V298.241H323.819V309.446C323.819 310.693 324.164 311.685 324.855 312.423C325.545 313.162 326.442 313.531 327.546 313.531C328.213 313.531 328.876 313.364 329.534 313.031C330.201 312.697 330.753 312.193 331.19 311.518C331.634 310.844 331.853 309.986 331.845 308.946ZM352.351 310.328L352.327 305.981H352.946L360.234 298.241H364.497L356.185 307.053H355.625L352.351 310.328ZM349.076 316.532V292.144H352.636V316.532H349.076ZM360.627 316.532L354.077 307.839L356.53 305.35L364.997 316.532H360.627ZM374.872 316.901C373.07 316.901 371.518 316.516 370.216 315.746C368.922 314.968 367.922 313.876 367.215 312.471C366.516 311.058 366.167 309.403 366.167 307.505C366.167 305.632 366.516 303.98 367.215 302.551C367.922 301.122 368.906 300.007 370.168 299.205C371.439 298.403 372.923 298.003 374.622 298.003C375.654 298.003 376.654 298.173 377.623 298.515C378.591 298.856 379.461 299.392 380.231 300.122C381.001 300.853 381.608 301.801 382.053 302.968C382.497 304.127 382.72 305.536 382.72 307.196V308.458H368.18V305.791H379.23C379.23 304.854 379.04 304.024 378.659 303.302C378.278 302.571 377.742 301.996 377.051 301.575C376.369 301.154 375.567 300.944 374.646 300.944C373.646 300.944 372.772 301.19 372.026 301.682C371.288 302.166 370.716 302.802 370.311 303.587C369.914 304.365 369.716 305.211 369.716 306.124V308.208C369.716 309.43 369.93 310.47 370.359 311.328C370.795 312.185 371.403 312.84 372.181 313.293C372.959 313.737 373.868 313.96 374.908 313.96C375.583 313.96 376.198 313.864 376.754 313.674C377.309 313.475 377.79 313.182 378.194 312.793C378.599 312.404 378.909 311.923 379.123 311.352L382.493 311.959C382.223 312.951 381.739 313.821 381.041 314.567C380.35 315.305 379.481 315.881 378.433 316.294C377.393 316.698 376.206 316.901 374.872 316.901ZM394.553 316.901C392.751 316.901 391.199 316.516 389.897 315.746C388.603 314.968 387.603 313.876 386.896 312.471C386.198 311.058 385.848 309.403 385.848 307.505C385.848 305.632 386.198 303.98 386.896 302.551C387.603 301.122 388.587 300.007 389.85 299.205C391.12 298.403 392.604 298.003 394.303 298.003C395.335 298.003 396.336 298.173 397.304 298.515C398.273 298.856 399.142 299.392 399.912 300.122C400.682 300.853 401.289 301.801 401.734 302.968C402.179 304.127 402.401 305.536 402.401 307.196V308.458H387.861V305.791H398.912C398.912 304.854 398.721 304.024 398.34 303.302C397.959 302.571 397.423 301.996 396.733 301.575C396.05 301.154 395.248 300.944 394.327 300.944C393.327 300.944 392.454 301.19 391.707 301.682C390.969 302.166 390.397 302.802 389.993 303.587C389.596 304.365 389.397 305.211 389.397 306.124V308.208C389.397 309.43 389.611 310.47 390.04 311.328C390.477 312.185 391.084 312.84 391.862 313.293C392.64 313.737 393.549 313.96 394.589 313.96C395.264 313.96 395.879 313.864 396.435 313.674C396.991 313.475 397.471 313.182 397.876 312.793C398.281 312.404 398.59 311.923 398.805 311.352L402.175 311.959C401.905 312.951 401.42 313.821 400.722 314.567C400.031 315.305 399.162 315.881 398.114 316.294C397.074 316.698 395.887 316.901 394.553 316.901ZM406.351 323.391V298.241H409.829V301.206H410.126C410.333 300.825 410.631 300.384 411.02 299.884C411.409 299.384 411.948 298.947 412.639 298.574C413.33 298.193 414.243 298.003 415.378 298.003C416.855 298.003 418.172 298.376 419.331 299.122C420.491 299.868 421.4 300.944 422.058 302.349C422.725 303.754 423.059 305.445 423.059 307.422C423.059 309.399 422.729 311.094 422.07 312.507C421.411 313.912 420.506 314.996 419.355 315.758C418.204 316.512 416.89 316.889 415.414 316.889C414.302 316.889 413.393 316.702 412.687 316.329C411.988 315.956 411.44 315.52 411.043 315.019C410.646 314.519 410.341 314.075 410.126 313.686H409.912V323.391H406.351ZM409.841 307.386C409.841 308.672 410.027 309.8 410.4 310.768C410.773 311.737 411.313 312.495 412.02 313.043C412.726 313.582 413.592 313.852 414.616 313.852C415.68 313.852 416.569 313.571 417.283 313.007C417.998 312.435 418.538 311.661 418.903 310.685C419.276 309.708 419.462 308.609 419.462 307.386C419.462 306.18 419.28 305.096 418.915 304.135C418.557 303.175 418.018 302.417 417.295 301.861C416.581 301.305 415.688 301.027 414.616 301.027C413.584 301.027 412.71 301.293 411.996 301.825C411.289 302.357 410.754 303.099 410.388 304.052C410.023 305.005 409.841 306.116 409.841 307.386ZM435.923 316.532V298.241H439.34V301.218H439.566C439.948 300.21 440.571 299.424 441.436 298.86C442.301 298.288 443.337 298.003 444.544 298.003C445.767 298.003 446.791 298.288 447.616 298.86C448.45 299.432 449.065 300.217 449.462 301.218H449.653C450.089 300.241 450.784 299.463 451.737 298.884C452.689 298.296 453.825 298.003 455.142 298.003C456.802 298.003 458.155 298.523 459.203 299.563C460.259 300.602 460.787 302.17 460.787 304.266V316.532H457.226V304.6C457.226 303.361 456.889 302.464 456.214 301.908C455.539 301.353 454.734 301.075 453.797 301.075C452.638 301.075 451.737 301.432 451.094 302.147C450.451 302.853 450.129 303.762 450.129 304.874V316.532H446.58V304.373C446.58 303.381 446.271 302.583 445.652 301.98C445.032 301.377 444.227 301.075 443.234 301.075C442.559 301.075 441.936 301.253 441.365 301.611C440.801 301.96 440.344 302.448 439.995 303.075C439.654 303.703 439.483 304.429 439.483 305.255V316.532H435.923ZM473.264 316.901C471.549 316.901 470.053 316.508 468.774 315.722C467.496 314.936 466.504 313.837 465.797 312.423C465.091 311.01 464.738 309.359 464.738 307.47C464.738 305.572 465.091 303.913 465.797 302.492C466.504 301.071 467.496 299.967 468.774 299.181C470.053 298.396 471.549 298.003 473.264 298.003C474.979 298.003 476.475 298.396 477.753 299.181C479.031 299.967 480.024 301.071 480.73 302.492C481.437 303.913 481.79 305.572 481.79 307.47C481.79 309.359 481.437 311.01 480.73 312.423C480.024 313.837 479.031 314.936 477.753 315.722C476.475 316.508 474.979 316.901 473.264 316.901ZM473.276 313.912C474.387 313.912 475.308 313.618 476.038 313.031C476.769 312.443 477.309 311.661 477.658 310.685C478.015 309.708 478.194 308.633 478.194 307.458C478.194 306.291 478.015 305.219 477.658 304.242C477.309 303.258 476.769 302.468 476.038 301.873C475.308 301.277 474.387 300.98 473.276 300.98C472.156 300.98 471.228 301.277 470.489 301.873C469.759 302.468 469.215 303.258 468.858 304.242C468.508 305.219 468.334 306.291 468.334 307.458C468.334 308.633 468.508 309.708 468.858 310.685C469.215 311.661 469.759 312.443 470.489 313.031C471.228 313.618 472.156 313.912 473.276 313.912ZM485.764 316.532V298.241H489.206V301.146H489.396C489.73 300.162 490.317 299.388 491.159 298.824C492.008 298.253 492.969 297.967 494.041 297.967C494.263 297.967 494.525 297.975 494.827 297.991C495.136 298.007 495.378 298.026 495.553 298.05V301.456C495.41 301.416 495.156 301.373 494.791 301.325C494.426 301.269 494.061 301.242 493.695 301.242C492.854 301.242 492.104 301.42 491.445 301.777C490.794 302.127 490.278 302.615 489.897 303.242C489.516 303.861 489.325 304.568 489.325 305.362V316.532H485.764ZM505.863 316.901C504.06 316.901 502.508 316.516 501.206 315.746C499.912 314.968 498.912 313.876 498.206 312.471C497.507 311.058 497.158 309.403 497.158 307.505C497.158 305.632 497.507 303.98 498.206 302.551C498.912 301.122 499.897 300.007 501.159 299.205C502.429 298.403 503.914 298.003 505.613 298.003C506.645 298.003 507.645 298.173 508.613 298.515C509.582 298.856 510.451 299.392 511.221 300.122C511.991 300.853 512.599 301.801 513.043 302.968C513.488 304.127 513.71 305.536 513.71 307.196V308.458H499.17V305.791H510.221C510.221 304.854 510.03 304.024 509.649 303.302C509.268 302.571 508.732 301.996 508.042 301.575C507.359 301.154 506.557 300.944 505.636 300.944C504.636 300.944 503.763 301.19 503.017 301.682C502.278 302.166 501.707 302.802 501.302 303.587C500.905 304.365 500.706 305.211 500.706 306.124V308.208C500.706 309.43 500.921 310.47 501.349 311.328C501.786 312.185 502.393 312.84 503.171 313.293C503.949 313.737 504.858 313.96 505.898 313.96C506.573 313.96 507.188 313.864 507.744 313.674C508.3 313.475 508.78 313.182 509.185 312.793C509.59 312.404 509.899 311.923 510.114 311.352L513.484 311.959C513.214 312.951 512.73 313.821 512.031 314.567C511.34 315.305 510.471 315.881 509.423 316.294C508.383 316.698 507.196 316.901 505.863 316.901Z" fill="#1B1A1A"/>
<path d="M551.662 249.847H241.996C211.516 249.847 186.808 274.555 186.808 305.035C186.808 335.514 211.516 360.223 241.996 360.223H551.662C582.142 360.223 606.85 335.514 606.85 305.035C606.85 274.555 582.142 249.847 551.662 249.847Z" stroke="white" stroke-opacity="0.5" stroke-width="3.06601"/>
</g>
<defs>
<clipPath id="clip0_2004_512">
<rect width="565.88" height="565.88" fill="white" transform="translate(46 22)"/>
</clipPath>
</defs>
</svg>
