<svg width="659" height="610" viewBox="0 0 659 610" fill="none" xmlns="http://www.w3.org/2000/svg">
<path d="M0.289062 50.3004C0.289062 22.5202 22.8093 0 50.5894 0H608.085C635.865 0 658.385 22.5202 658.385 50.3004V591.556C658.385 601.498 650.326 609.556 640.385 609.556H18.2891C8.34794 609.556 0.289062 601.498 0.289062 591.556V50.3004Z" fill="#3866FF"/>
<g clip-path="url(#clip0_2004_567)">
<g clip-path="url(#clip1_2004_567)">
<g clip-path="url(#clip2_2004_567)">
<path d="M593.414 589.834H65.2603C37.4802 589.834 14.96 567.314 14.96 539.534V70.0641C14.96 42.2841 37.4802 19.7638 65.2603 19.7638H593.414C621.194 19.7638 643.714 42.2841 643.714 70.0641V539.534C643.714 567.314 621.194 589.834 593.414 589.834Z" fill="#3866FF"/>
<path d="M452.347 298.829H221.221C187.112 298.829 159.461 326.126 159.461 359.798C159.461 393.471 187.112 420.768 221.221 420.768H452.347C486.456 420.768 514.107 393.471 514.107 359.798C514.107 326.126 486.456 298.829 452.347 298.829Z" fill="white"/>
<path d="M279.622 368.449V348.085H282.695V365.804H291.922V368.449H279.622ZM301.622 368.757C300.19 368.757 298.94 368.429 297.873 367.773C296.806 367.116 295.977 366.198 295.387 365.018C294.797 363.838 294.502 362.46 294.502 360.882C294.502 359.298 294.797 357.912 295.387 356.726C295.977 355.539 296.806 354.618 297.873 353.962C298.94 353.305 300.19 352.977 301.622 352.977C303.054 352.977 304.303 353.305 305.37 353.962C306.438 354.618 307.266 355.539 307.856 356.726C308.446 357.912 308.741 359.298 308.741 360.882C308.741 362.46 308.446 363.838 307.856 365.018C307.266 366.198 306.438 367.116 305.37 367.773C304.303 368.429 303.054 368.757 301.622 368.757ZM301.632 366.261C302.56 366.261 303.329 366.016 303.939 365.525C304.548 365.035 304.999 364.382 305.291 363.567C305.589 362.751 305.738 361.853 305.738 360.872C305.738 359.898 305.589 359.003 305.291 358.187C304.999 357.365 304.548 356.706 303.939 356.209C303.329 355.712 302.56 355.463 301.632 355.463C300.697 355.463 299.921 355.712 299.305 356.209C298.695 356.706 298.241 357.365 297.943 358.187C297.651 359.003 297.505 359.898 297.505 360.872C297.505 361.853 297.651 362.751 297.943 363.567C298.241 364.382 298.695 365.035 299.305 365.525C299.921 366.016 300.697 366.261 301.632 366.261ZM316.504 368.787C315.536 368.787 314.661 368.608 313.879 368.25C313.097 367.885 312.477 367.358 312.02 366.669C311.569 365.98 311.344 365.134 311.344 364.133C311.344 363.272 311.509 362.562 311.841 362.006C312.172 361.449 312.62 361.008 313.183 360.683C313.747 360.358 314.376 360.113 315.072 359.947C315.768 359.782 316.478 359.656 317.2 359.569C318.115 359.463 318.857 359.377 319.428 359.311C319.998 359.238 320.412 359.122 320.67 358.963C320.929 358.804 321.058 358.545 321.058 358.187V358.118C321.058 357.249 320.813 356.577 320.322 356.099C319.838 355.622 319.116 355.383 318.155 355.383C317.154 355.383 316.365 355.605 315.788 356.05C315.218 356.487 314.824 356.974 314.605 357.511L311.811 356.875C312.142 355.947 312.626 355.198 313.263 354.628C313.906 354.051 314.645 353.633 315.48 353.375C316.315 353.11 317.194 352.977 318.115 352.977C318.725 352.977 319.371 353.05 320.054 353.196C320.743 353.335 321.386 353.594 321.983 353.971C322.586 354.349 323.08 354.89 323.464 355.592C323.849 356.288 324.041 357.193 324.041 358.307V368.449H321.138V366.361H321.018C320.826 366.745 320.538 367.123 320.153 367.494C319.769 367.865 319.275 368.174 318.672 368.419C318.069 368.664 317.346 368.787 316.504 368.787ZM317.151 366.4C317.972 366.4 318.675 366.238 319.258 365.913C319.848 365.588 320.296 365.164 320.601 364.64C320.912 364.11 321.068 363.543 321.068 362.94V360.971C320.962 361.078 320.757 361.177 320.452 361.27C320.153 361.356 319.812 361.432 319.428 361.498C319.043 361.558 318.669 361.614 318.304 361.667C317.939 361.714 317.634 361.754 317.389 361.787C316.812 361.86 316.285 361.982 315.808 362.155C315.338 362.327 314.96 362.576 314.675 362.9C314.396 363.219 314.257 363.643 314.257 364.173C314.257 364.909 314.529 365.466 315.072 365.844C315.616 366.215 316.309 366.4 317.151 366.4ZM330.974 359.381V368.449H328.001V353.176H330.855V355.662H331.044C331.395 354.853 331.945 354.203 332.694 353.713C333.45 353.222 334.401 352.977 335.548 352.977C336.589 352.977 337.5 353.196 338.282 353.633C339.064 354.064 339.671 354.707 340.102 355.562C340.533 356.417 340.748 357.475 340.748 358.734V368.449H337.775V359.092C337.775 357.985 337.487 357.12 336.91 356.497C336.333 355.867 335.541 355.552 334.534 355.552C333.844 355.552 333.231 355.702 332.694 356C332.164 356.298 331.743 356.736 331.431 357.312C331.126 357.882 330.974 358.572 330.974 359.381ZM366.165 354.518C365.973 353.915 365.715 353.375 365.39 352.898C365.072 352.414 364.691 352.003 364.246 351.665C363.802 351.32 363.295 351.058 362.725 350.879C362.162 350.7 361.542 350.611 360.866 350.611C359.719 350.611 358.685 350.906 357.763 351.496C356.842 352.086 356.113 352.951 355.576 354.091C355.046 355.224 354.78 356.613 354.78 358.257C354.78 359.908 355.049 361.303 355.586 362.443C356.123 363.583 356.859 364.448 357.793 365.038C358.728 365.628 359.792 365.923 360.985 365.923C362.092 365.923 363.057 365.698 363.879 365.247C364.707 364.796 365.347 364.16 365.798 363.338C366.255 362.509 366.484 361.535 366.484 360.415L367.279 360.564H361.452V358.028H369.457V360.345C369.457 362.055 369.092 363.54 368.363 364.8C367.64 366.052 366.639 367.02 365.36 367.703C364.087 368.386 362.629 368.727 360.985 368.727C359.142 368.727 357.525 368.303 356.133 367.454C354.747 366.606 353.667 365.403 352.891 363.845C352.116 362.281 351.728 360.425 351.728 358.277C351.728 356.653 351.953 355.194 352.404 353.902C352.855 352.609 353.488 351.512 354.303 350.611C355.125 349.703 356.09 349.01 357.197 348.533C358.31 348.049 359.527 347.807 360.846 347.807C361.946 347.807 362.97 347.969 363.918 348.294C364.873 348.619 365.721 349.079 366.464 349.676C367.213 350.273 367.833 350.982 368.323 351.804C368.814 352.619 369.145 353.524 369.317 354.518H366.165ZM373.118 368.449V353.176H375.992V355.602H376.151C376.429 354.78 376.92 354.134 377.622 353.663C378.332 353.186 379.134 352.947 380.029 352.947C380.214 352.947 380.433 352.954 380.685 352.967C380.943 352.98 381.146 352.997 381.292 353.017V355.861C381.172 355.828 380.96 355.791 380.655 355.751C380.35 355.705 380.045 355.682 379.74 355.682C379.038 355.682 378.411 355.831 377.861 356.129C377.318 356.421 376.887 356.828 376.568 357.352C376.25 357.869 376.091 358.459 376.091 359.122V368.449H373.118ZM388.172 368.787C387.204 368.787 386.329 368.608 385.547 368.25C384.765 367.885 384.145 367.358 383.688 366.669C383.237 365.98 383.012 365.134 383.012 364.133C383.012 363.272 383.177 362.562 383.509 362.006C383.84 361.449 384.288 361.008 384.851 360.683C385.415 360.358 386.044 360.113 386.74 359.947C387.436 359.782 388.146 359.656 388.868 359.569C389.783 359.463 390.525 359.377 391.095 359.311C391.666 359.238 392.08 359.122 392.338 358.963C392.597 358.804 392.726 358.545 392.726 358.187V358.118C392.726 357.249 392.481 356.577 391.99 356.099C391.506 355.622 390.784 355.383 389.823 355.383C388.822 355.383 388.033 355.605 387.456 356.05C386.886 356.487 386.492 356.974 386.273 357.511L383.479 356.875C383.81 355.947 384.294 355.198 384.931 354.628C385.574 354.051 386.313 353.633 387.148 353.375C387.983 353.11 388.862 352.977 389.783 352.977C390.393 352.977 391.039 353.05 391.722 353.196C392.411 353.335 393.054 353.594 393.651 353.971C394.254 354.349 394.748 354.89 395.132 355.592C395.517 356.288 395.709 357.193 395.709 358.307V368.449H392.806V366.361H392.686C392.494 366.745 392.206 367.123 391.821 367.494C391.437 367.865 390.943 368.174 390.34 368.419C389.737 368.664 389.014 368.787 388.172 368.787ZM388.818 366.4C389.64 366.4 390.343 366.238 390.926 365.913C391.516 365.588 391.964 365.164 392.269 364.64C392.58 364.11 392.736 363.543 392.736 362.94V360.971C392.63 361.078 392.425 361.177 392.12 361.27C391.821 361.356 391.48 361.432 391.095 361.498C390.711 361.558 390.336 361.614 389.972 361.667C389.607 361.714 389.302 361.754 389.057 361.787C388.48 361.86 387.953 361.982 387.476 362.155C387.006 362.327 386.628 362.576 386.343 362.9C386.064 363.219 385.925 363.643 385.925 364.173C385.925 364.909 386.197 365.466 386.74 365.844C387.284 366.215 387.977 366.4 388.818 366.4ZM402.642 359.381V368.449H399.669V353.176H402.523V355.662H402.712C403.063 354.853 403.613 354.203 404.362 353.713C405.118 353.222 406.069 352.977 407.216 352.977C408.257 352.977 409.168 353.196 409.95 353.633C410.732 354.064 411.339 354.707 411.77 355.562C412.201 356.417 412.416 357.475 412.416 358.734V368.449H409.443V359.092C409.443 357.985 409.155 357.12 408.578 356.497C408.001 355.867 407.209 355.552 406.202 355.552C405.512 355.552 404.899 355.702 404.362 356C403.832 356.298 403.411 356.736 403.099 357.312C402.794 357.882 402.642 358.572 402.642 359.381ZM423.533 353.176V355.562H415.19V353.176H423.533ZM417.428 349.517H420.401V363.964C420.401 364.541 420.487 364.975 420.659 365.267C420.831 365.552 421.053 365.747 421.325 365.854C421.604 365.953 421.905 366.003 422.23 366.003C422.469 366.003 422.678 365.986 422.856 365.953C423.035 365.92 423.175 365.893 423.274 365.873L423.811 368.329C423.639 368.396 423.393 368.462 423.075 368.528C422.757 368.601 422.359 368.641 421.882 368.648C421.1 368.661 420.371 368.522 419.695 368.23C419.018 367.938 418.472 367.488 418.054 366.878C417.636 366.268 417.428 365.502 417.428 364.581V349.517ZM433.24 368.757C431.735 368.757 430.439 368.435 429.352 367.792C428.271 367.143 427.436 366.231 426.846 365.058C426.263 363.878 425.971 362.496 425.971 360.912C425.971 359.347 426.263 357.969 426.846 356.775C427.436 355.582 428.258 354.651 429.312 353.981C430.373 353.312 431.612 352.977 433.031 352.977C433.893 352.977 434.728 353.12 435.537 353.405C436.345 353.69 437.071 354.137 437.714 354.747C438.357 355.357 438.864 356.149 439.235 357.123C439.607 358.091 439.792 359.268 439.792 360.653V361.707H427.652V359.48H436.879C436.879 358.698 436.72 358.005 436.402 357.402C436.083 356.792 435.636 356.311 435.059 355.96C434.489 355.609 433.82 355.433 433.051 355.433C432.216 355.433 431.486 355.639 430.863 356.05C430.247 356.454 429.769 356.984 429.431 357.64C429.1 358.29 428.934 358.996 428.934 359.758V361.498C428.934 362.519 429.113 363.388 429.471 364.104C429.836 364.819 430.343 365.366 430.992 365.744C431.642 366.115 432.401 366.301 433.269 366.301C433.833 366.301 434.347 366.221 434.811 366.062C435.275 365.897 435.676 365.651 436.014 365.327C436.352 365.002 436.61 364.601 436.789 364.123L439.603 364.631C439.378 365.459 438.974 366.185 438.39 366.808C437.814 367.425 437.088 367.905 436.213 368.25C435.344 368.588 434.353 368.757 433.24 368.757ZM448.808 368.747C447.575 368.747 446.475 368.432 445.507 367.802C444.546 367.166 443.79 366.261 443.24 365.088C442.696 363.908 442.425 362.493 442.425 360.842C442.425 359.192 442.7 357.78 443.25 356.606C443.807 355.433 444.569 354.535 445.537 353.912C446.505 353.289 447.602 352.977 448.828 352.977C449.776 352.977 450.538 353.136 451.115 353.454C451.698 353.766 452.149 354.131 452.467 354.548C452.792 354.966 453.044 355.334 453.223 355.652H453.402V348.085H456.375V368.449H453.472V366.072H453.223C453.044 366.397 452.785 366.768 452.447 367.186C452.116 367.604 451.659 367.968 451.075 368.28C450.492 368.591 449.736 368.747 448.808 368.747ZM449.464 366.212C450.32 366.212 451.042 365.986 451.632 365.535C452.229 365.078 452.679 364.445 452.984 363.636C453.296 362.828 453.452 361.886 453.452 360.812C453.452 359.752 453.299 358.824 452.994 358.028C452.689 357.233 452.242 356.613 451.652 356.169C451.062 355.725 450.333 355.503 449.464 355.503C448.57 355.503 447.824 355.735 447.227 356.199C446.631 356.663 446.18 357.296 445.875 358.098C445.577 358.9 445.428 359.805 445.428 360.812C445.428 361.833 445.58 362.751 445.885 363.567C446.19 364.382 446.641 365.028 447.237 365.506C447.84 365.976 448.583 366.212 449.464 366.212Z" fill="#1A1A1A"/>
<path d="M256.267 359.799C256.267 340.521 240.639 324.893 221.361 324.893C202.083 324.893 186.455 340.521 186.455 359.799C186.455 379.077 202.083 394.705 221.361 394.705C240.639 394.705 256.267 379.077 256.267 359.799Z" stroke="#F2F2F1" stroke-opacity="0.4" stroke-width="5.67493"/>
<path d="M452.347 298.829H221.221C187.112 298.829 159.461 326.126 159.461 359.798C159.461 393.471 187.112 420.768 221.221 420.768H452.347C486.456 420.768 514.107 393.471 514.107 359.798C514.107 326.126 486.456 298.829 452.347 298.829Z" stroke="#E3E3E3" stroke-width="0.209585"/>
<path d="M252.544 359.799C252.544 342.577 238.583 328.616 221.361 328.616C204.139 328.616 190.178 342.577 190.178 359.799C190.178 377.02 204.139 390.981 221.361 390.981C238.583 390.981 252.544 377.02 252.544 359.799Z" fill="#46FFD1"/>
<path d="M256.267 359.333C256.267 340.312 240.639 324.893 221.361 324.893C202.083 324.893 186.455 340.312 186.455 359.333C186.455 378.354 202.083 393.774 221.361 393.774C240.639 393.774 256.267 378.354 256.267 359.333Z" stroke="#E7E7E6" stroke-opacity="0.5" stroke-width="6.98615"/>
<path d="M228.652 337.613C223.942 337.613 220.12 341.436 220.12 346.146C220.12 350.856 223.942 354.678 228.652 354.678C233.362 354.678 237.185 350.856 237.185 346.146C237.185 341.436 233.362 337.613 228.652 337.613ZM228.652 351.265C225.82 351.265 223.533 348.979 223.533 346.146C223.533 343.313 225.82 341.026 228.652 341.026C231.485 341.026 233.772 343.313 233.772 346.146C233.772 348.979 231.485 351.265 228.652 351.265ZM233.772 361.505H230.359C230.359 359.457 229.079 357.614 227.168 356.897L216.656 352.972H203.055V371.744H213.294V369.286L225.239 372.597L238.892 368.331V366.624C238.892 363.791 236.605 361.505 233.772 361.505ZM209.881 368.331H206.468V356.385H209.881V368.331ZM225.188 369.03L213.294 365.771V356.385H216.041L225.973 360.088C226.553 360.31 226.946 360.873 226.946 361.505C226.946 361.505 223.533 361.419 223.021 361.249L218.959 359.9L217.884 363.143L221.946 364.491C222.816 364.781 223.721 364.918 224.642 364.918H233.772C234.438 364.918 235.035 365.327 235.308 365.89L225.188 369.03Z" fill="black"/>
</g>
</g>
</g>
<defs>
<clipPath id="clip0_2004_567">
<rect width="628.754" height="570.071" fill="white" transform="translate(14.96 19.7642)"/>
</clipPath>
<clipPath id="clip1_2004_567">
<rect width="628.754" height="570.071" fill="white" transform="translate(14.96 19.7642)"/>
</clipPath>
<clipPath id="clip2_2004_567">
<rect width="628.754" height="570.071" fill="white" transform="translate(14.96 19.7642)"/>
</clipPath>
</defs>
</svg>
