<svg width="47" height="48" viewBox="0 0 47 48" fill="none" xmlns="http://www.w3.org/2000/svg">
<path d="M33.0121 16.8101H13.5932C8.50548 16.8101 4.36926 20.9463 4.36926 26.034V33.8016C4.36926 38.8893 8.50548 43.0255 13.5932 43.0255H33.0121C38.0998 43.0255 42.236 38.8893 42.236 33.8016V26.034C42.236 20.9463 38.0998 16.8101 33.0121 16.8101ZM39.3232 33.8016C39.3232 37.2775 36.4881 40.1127 33.0121 40.1127H13.5932C10.1172 40.1127 7.28209 37.2775 7.28209 33.8016V26.034C7.28209 22.558 10.1172 19.7229 13.5932 19.7229H33.0121C36.4881 19.7229 39.3232 22.558 39.3232 26.034V33.8016Z" fill="white"/>
<path d="M23.3026 27.4905H25.2445C26.0407 27.4905 26.7009 26.8302 26.7009 26.034C26.7009 25.2379 26.0407 24.5776 25.2445 24.5776H24.759V24.0922C24.759 23.296 24.0988 22.6357 23.3026 22.6357C22.5064 22.6357 21.8462 23.296 21.8462 24.0922V24.9272C20.7005 25.4709 19.9043 26.636 19.9043 27.9759C19.9043 29.8401 21.4384 31.3742 23.3026 31.3742C23.5745 31.3742 23.7881 31.5878 23.7881 31.8597C23.7881 32.1316 23.5745 32.3452 23.3026 32.3452H21.3607C20.5645 32.3452 19.9043 33.0054 19.9043 33.8016C19.9043 34.5978 20.5645 35.258 21.3607 35.258H21.8462V35.7435C21.8462 36.5396 22.5064 37.1999 23.3026 37.1999C24.0988 37.1999 24.759 36.5396 24.759 35.7435V34.9085C25.9047 34.3647 26.7009 33.1996 26.7009 31.8597C26.7009 29.9955 25.1668 28.4614 23.3026 28.4614C23.0307 28.4614 22.8171 28.2478 22.8171 27.9759C22.8171 27.7041 23.0307 27.4905 23.3026 27.4905Z" fill="white"/>
<path d="M33.051 28.4614C32.2548 28.4614 31.5945 29.1217 31.5945 29.9178C31.5945 30.714 32.2548 31.3743 33.051 31.3743C33.8471 31.3743 34.5074 30.714 34.5074 29.9178C34.5074 29.1217 33.8665 28.4614 33.051 28.4614Z" fill="white"/>
<path d="M13.6321 28.4614C12.8359 28.4614 12.1757 29.1217 12.1757 29.9178C12.1757 30.714 12.8359 31.3743 13.6321 31.3743C14.4282 31.3743 15.0885 30.714 15.0885 29.9178C15.0885 29.1217 14.4477 28.4614 13.6321 28.4614Z" fill="white"/>
<path d="M11.6901 15.7032C12.428 16.0527 13.2824 15.7226 13.632 15.0041C13.9038 14.4021 14.2534 13.8778 14.6029 13.4311C15.1078 14.4992 15.9234 15.3342 16.972 15.742C18.0983 16.1886 19.1858 15.9944 19.8848 15.7614C20.4674 15.5672 20.8752 15.0235 20.8946 14.4021C20.9335 13.101 21.2442 11.1786 22.5452 9.41144C22.7782 9.10074 23.0307 8.79004 23.322 8.51817C23.5938 8.79004 23.8657 9.10074 24.0987 9.41144C25.3998 11.1786 25.7299 13.101 25.7493 14.4021C25.7493 15.0235 26.1571 15.5672 26.7591 15.7614C27.1475 15.8973 27.6524 15.9944 28.2349 15.9944C28.6816 15.9944 29.1865 15.9168 29.6914 15.7226C30.74 15.3148 31.5556 14.4798 32.0605 13.4117C32.41 13.8584 32.7401 14.3827 33.0314 14.9847C33.3809 15.7032 34.2354 16.0333 34.9733 15.6837C35.7112 15.3342 36.0219 14.4798 35.6724 13.7418C34.8762 12.033 33.5557 10.4601 31.9828 9.29493C31.5167 8.96481 30.8953 8.92597 30.4099 9.19783C29.905 9.48912 29.6331 10.0328 29.6719 10.596C29.7885 11.8388 29.2447 12.7515 28.6622 12.9845C28.6622 12.9845 28.6233 12.9845 28.6039 13.0039C28.4097 11.4116 27.8466 9.4697 26.4678 7.64432C25.8464 6.80931 25.0891 6.05198 24.2347 5.41116C23.7104 5.02278 23.0113 5.02278 22.487 5.41116C21.6325 6.05198 20.8752 6.80931 20.2538 7.64432C18.8945 9.4697 18.3313 11.4116 18.1177 13.0039C18.0983 13.0039 18.0789 13.0039 18.0595 12.9845C17.4769 12.7515 16.9138 11.8582 17.0497 10.596C17.1079 10.0328 16.8167 9.4697 16.3118 9.19783C15.8069 8.90655 15.1855 8.94539 14.7388 9.29493C13.1659 10.4601 11.8454 12.033 11.0493 13.7418C10.7191 14.4798 11.0298 15.3342 11.7483 15.6837L11.6901 15.7032Z" fill="white"/>
</svg>
