<svg width="45" height="46" viewBox="0 0 45 46" fill="none" xmlns="http://www.w3.org/2000/svg">
<path d="M29.7324 32.8438C28.9709 32.8438 28.3393 33.4753 28.3393 34.2369C28.3393 36.5401 26.4633 38.4161 24.1601 38.4161H13.0153C10.7121 38.4161 8.83605 36.5401 8.83605 34.2369V11.9474C8.83605 9.64415 10.7121 7.76812 13.0153 7.76812H24.1601C26.4633 7.76812 28.3393 9.64415 28.3393 11.9474V13.8048C28.3393 14.5664 28.9709 15.1979 29.7324 15.1979C30.494 15.1979 31.1255 14.5664 31.1255 13.8048V11.9474C31.1255 8.10246 28.005 4.98193 24.1601 4.98193H13.0153C9.17039 4.98193 6.04987 8.10246 6.04987 11.9474V34.2369C6.04987 38.0818 9.17039 41.2023 13.0153 41.2023H24.1601C28.005 41.2023 31.1255 38.0818 31.1255 34.2369C31.1255 33.4753 30.494 32.8438 29.7324 32.8438Z" fill="white"/>
<path d="M37.1623 16.1267H22.3027C20.5195 16.1267 19.0521 17.5941 19.0521 19.3773V28.6645C19.0521 30.4477 20.5195 31.9151 22.3027 31.9151H37.1623C38.9455 31.9151 40.4129 30.4477 40.4129 28.6645V19.3773C40.4129 17.5941 38.9455 16.1267 37.1623 16.1267ZM37.6267 28.6645C37.6267 28.9246 37.4224 29.1289 37.1623 29.1289H22.3027C22.0426 29.1289 21.8383 28.9246 21.8383 28.6645V24.4853H33.4474C34.209 24.4853 34.8405 23.8537 34.8405 23.0922C34.8405 22.3306 34.209 21.6991 33.4474 21.6991H21.8383V19.3773C21.8383 19.1172 22.0426 18.9129 22.3027 18.9129H37.1623C37.4224 18.9129 37.6267 19.1172 37.6267 19.3773V28.6645Z" fill="white"/>
<path d="M16.7303 10.5542C15.9687 10.5542 15.3372 11.1857 15.3372 11.9473C15.3372 12.7088 15.9687 13.3404 16.7303 13.3404H20.4452C21.2067 13.3404 21.8383 12.7088 21.8383 11.9473C21.8383 11.1857 21.2067 10.5542 20.4452 10.5542H16.7303Z" fill="white"/>
</svg>
