<svg width="1408" height="577" viewBox="0 0 1408 577" fill="none" xmlns="http://www.w3.org/2000/svg">
<path d="M1240 -1332.85C1240 -1354.96 1232.9 -1373.9 1218.69 -1389.69C1202.9 -1403.9 1183.96 -1411 1161.85 -1411L520.109 -1411L520.109 -1252.34L1081.34 -1252.34L1081.34 -1223.92L489.324 -1223.92L489.324 -1332.85C489.324 -1354.96 482.22 -1373.9 468.011 -1389.69C452.224 -1403.9 433.28 -1411 411.178 -1411L-339.499 -1411C-361.601 -1411 -379.756 -1403.9 -393.964 -1389.69C-409.751 -1373.9 -417.645 -1354.96 -417.645 -1332.85L-417.645 -1143.41C-417.645 -1121.31 -409.751 -1103.15 -393.964 -1088.94C-379.756 -1073.16 -361.601 -1065.26 -339.499 -1065.26L302.247 -1065.26L302.247 -1223.92L-258.985 -1223.92L-258.985 -1252.34L330.663 -1252.34L330.663 -1143.41C330.663 -1121.31 338.557 -1103.15 354.344 -1088.94C370.131 -1073.16 389.076 -1065.26 411.178 -1065.26L1161.85 -1065.26C1183.96 -1065.26 1202.9 -1073.16 1218.69 -1088.94C1232.9 -1103.15 1240 -1121.31 1240 -1143.41L1240 -1332.85ZM1240 -690.627L1240 -958.219C1240 -980.321 1232.9 -999.265 1218.69 -1015.05C1202.9 -1029.26 1183.96 -1036.36 1161.85 -1036.36L598.255 -1036.36C576.153 -1036.36 557.998 -1029.26 543.789 -1015.05C528.002 -999.265 520.109 -980.321 520.109 -958.219L520.109 -849.288L115.17 -849.288L115.17 -877.705L491.692 -877.704L491.692 -1036.36L37.0234 -1036.36C14.9215 -1036.36 -4.02299 -1029.26 -19.8101 -1015.05C-35.5972 -999.265 -43.4908 -980.321 -43.4908 -958.219L-43.4908 -768.774C-43.4908 -746.672 -35.5973 -728.516 -19.8101 -714.308C-4.023 -698.521 14.9215 -690.627 37.0234 -690.627L1240 -690.627ZM1081.34 -877.704L1081.34 -849.288L678.769 -849.288L678.769 -877.704L1081.34 -877.704ZM1240 -315.992L1240 -538.59L993.721 -661.73L-43.4908 -661.73L-43.4908 -503.069L955.832 -503.069L1081.34 -474.653L-43.4909 -474.653L-43.4909 -315.992L1240 -315.992ZM-43.4909 -100.017L-43.4909 58.6429L1161.85 58.643C1183.96 58.643 1202.9 50.7494 1218.69 34.9623C1232.9 19.1752 1240 0.230721 1240 -21.8712L1240 -208.948C1240 -231.05 1232.9 -249.995 1218.69 -265.782C1202.9 -279.99 1183.96 -287.094 1161.85 -287.094L-43.4909 -287.094L-43.4909 -128.434L1081.34 -128.434L1081.34 -100.017L-43.4909 -100.017ZM1240 433.278L1240 274.618L115.169 274.618L115.169 246.201L1240 246.201L1240 87.5407L-43.4909 87.5407L-43.4909 355.132C-43.4909 377.234 -35.5973 395.389 -19.8101 409.597C-5.60174 425.385 12.5534 433.278 34.6554 433.278L1240 433.278ZM1240 729.767L1240 540.322C1240 518.22 1232.9 499.276 1218.69 483.488C1202.9 469.28 1183.96 462.176 1161.85 462.176L37.0234 462.176C14.9215 462.176 -4.02305 469.28 -19.8101 483.488C-35.5973 499.275 -43.4909 518.22 -43.4909 540.322L-43.4909 729.767C-43.4909 751.869 -35.5973 770.024 -19.8101 784.233C-4.02307 800.02 14.9214 807.913 37.0234 807.913L678.769 807.913L678.769 620.836L1081.34 620.836L1081.34 649.253L707.186 649.253L707.186 807.913L1161.85 807.913C1183.96 807.913 1202.9 800.02 1218.69 784.233C1232.9 770.024 1240 751.869 1240 729.767ZM520.108 620.836L520.108 649.253L115.169 649.253L115.169 620.836L520.108 620.836ZM-43.4909 1023.89L-43.4909 1182.55L1536.01 1182.55C1558.11 1182.55 1576.27 1174.65 1590.47 1158.87C1606.26 1143.08 1614.15 1124.14 1614.15 1102.03L1614.15 914.957C1614.15 892.855 1606.26 873.911 1590.47 858.124C1576.27 843.915 1558.11 836.811 1536.01 836.811L1268.42 836.811L1268.42 995.471L1455.49 995.471L1455.49 1023.89L1240 1023.89L1240 914.957C1240 892.855 1232.9 873.911 1218.69 858.124C1202.9 843.915 1183.96 836.811 1161.85 836.811L-43.4909 836.811L-43.4909 995.471L1081.34 995.471L1081.34 1023.89L-43.4909 1023.89Z" fill="url(#paint0_linear_2042_921)"/>
<defs>
<linearGradient id="paint0_linear_2042_921" x1="-432" y1="144.5" x2="2013" y2="144.5" gradientUnits="userSpaceOnUse">
<stop stop-color="white" stop-opacity="0.14"/>
<stop offset="1" stop-color="white" stop-opacity="0"/>
</linearGradient>
</defs>
</svg>
