<svg width="46" height="46" viewBox="0 0 46 46" fill="none" xmlns="http://www.w3.org/2000/svg">
<path d="M34.0395 17.9841H33.5751V17.5198C33.5751 15.7366 32.1077 14.2692 30.3246 14.2692H29.8602V9.16121C29.8602 6.85796 27.9842 4.98193 25.6809 4.98193H14.5362C12.2329 4.98193 10.3569 6.85796 10.3569 9.16121V10.0899C10.3569 11.8731 11.8243 13.3405 13.6075 13.3405H15.9293V14.2692H15.4649C13.6817 14.2692 12.2144 15.7366 12.2144 17.5198V37.9518C12.2144 39.7349 13.6817 41.2023 15.4649 41.2023H30.3246C31.6248 41.2023 32.7207 40.4408 33.2408 39.3449H34.0395C35.8226 39.3449 37.29 37.8775 37.29 36.0943V21.2347C37.29 19.4515 35.8226 17.9841 34.0395 17.9841ZM13.1431 10.0899V9.16121C13.1431 8.39965 13.7746 7.76812 14.5362 7.76812C15.2977 7.76812 15.9293 8.39965 15.9293 9.16121V10.5543H13.6075C13.3474 10.5543 13.1431 10.35 13.1431 10.0899ZM18.7155 11.9474V9.16121C18.7155 8.67827 18.6226 8.21391 18.4554 7.76812H25.6809C26.4425 7.76812 27.074 8.39965 27.074 9.16121V14.2692H18.7155V11.9474ZM15.4649 17.0554H30.3246C30.5846 17.0554 30.7889 17.2597 30.7889 17.5198V23.5565H15.0005V17.5198C15.0005 17.2597 15.2049 17.0554 15.4649 17.0554ZM30.3246 38.4161H15.4649C15.2049 38.4161 15.0005 38.2118 15.0005 37.9518V26.3427H30.7889V37.9518C30.7889 38.2118 30.5846 38.4161 30.3246 38.4161ZM34.5038 36.0943C34.5038 36.3544 34.2995 36.5587 34.0395 36.5587H33.5751V20.7703H34.0395C34.2995 20.7703 34.5038 20.9746 34.5038 21.2347V36.0943Z" fill="white"/>
<path d="M19.217 29.1289H19.1984C18.4369 29.1289 17.8239 29.7604 17.8239 30.522C17.8239 31.2836 18.4555 31.9151 19.217 31.9151C19.9786 31.9151 20.6101 31.2836 20.6101 30.522C20.6101 29.7604 19.9786 29.1289 19.217 29.1289Z" fill="white"/>
<path d="M22.9319 29.1289H22.9133C22.1518 29.1289 21.5388 29.7604 21.5388 30.522C21.5388 31.2836 22.1704 31.9151 22.9319 31.9151C23.6935 31.9151 24.325 31.2836 24.325 30.522C24.325 29.7604 23.6935 29.1289 22.9319 29.1289Z" fill="white"/>
<path d="M26.6468 29.1289H26.6283C25.8667 29.1289 25.2537 29.7604 25.2537 30.522C25.2537 31.2836 25.8853 31.9151 26.6468 31.9151C27.4084 31.9151 28.0399 31.2836 28.0399 30.522C28.0399 29.7604 27.4084 29.1289 26.6468 29.1289Z" fill="white"/>
<path d="M26.6468 32.8438H26.6283C25.8667 32.8438 25.2537 33.4753 25.2537 34.2368C25.2537 34.9984 25.8853 35.6299 26.6468 35.6299C27.4084 35.6299 28.0399 34.9984 28.0399 34.2368C28.0399 33.4753 27.4084 32.8438 26.6468 32.8438Z" fill="white"/>
<path d="M22.9319 32.8438H22.9133C22.1518 32.8438 21.5388 33.4753 21.5388 34.2368C21.5388 34.9984 22.1704 35.6299 22.9319 35.6299C23.6935 35.6299 24.325 34.9984 24.325 34.2368C24.325 33.4753 23.6935 32.8438 22.9319 32.8438Z" fill="white"/>
<path d="M19.217 32.8438H19.1984C18.4369 32.8438 17.8239 33.4753 17.8239 34.2368C17.8239 34.9984 18.4555 35.6299 19.217 35.6299C19.9786 35.6299 20.6101 34.9984 20.6101 34.2368C20.6101 33.4753 19.9786 32.8438 19.217 32.8438Z" fill="white"/>
</svg>
