<svg width="46" height="46" viewBox="0 0 46 46" fill="none" xmlns="http://www.w3.org/2000/svg">
<path d="M32.182 4.98193H13.6075C8.74093 4.98193 4.78455 8.93832 4.78455 13.8048V28.6645C4.78455 32.3794 7.10637 35.5557 10.3569 36.8559V37.9518C10.3569 39.7349 11.8243 41.2023 13.6075 41.2023H15.4649C17.2481 41.2023 18.7155 39.7349 18.7155 37.9518V37.4874H27.074V37.9518C27.074 39.7349 28.5414 41.2023 30.3246 41.2023H32.182C33.9652 41.2023 35.4326 39.7349 35.4326 37.9518V36.8559C38.6831 35.5557 41.0049 32.3794 41.0049 28.6645V13.8048C41.0049 8.93832 37.0486 4.98193 32.182 4.98193ZM15.9293 37.9518C15.9293 38.2118 15.725 38.4161 15.4649 38.4161H13.6075C13.3474 38.4161 13.1431 38.2118 13.1431 37.9518V37.4874H15.9293V37.9518ZM32.6464 37.4874V37.9518C32.6464 38.2118 32.4421 38.4161 32.182 38.4161H30.3246C30.0645 38.4161 29.8602 38.2118 29.8602 37.9518V37.4874H32.6464ZM38.2188 28.6645C38.2188 31.9893 35.5069 34.7012 32.182 34.7012H13.6075C10.2826 34.7012 7.57073 31.9893 7.57073 28.6645V13.8048C7.57073 10.48 10.2826 7.76812 13.6075 7.76812H32.182C35.5069 7.76812 38.2188 10.48 38.2188 13.8048V28.6645Z" fill="white"/>
<path d="M30.3246 16.1267C27.5012 16.1267 25.2166 18.4114 25.2166 21.2347C25.2166 24.058 27.5012 26.3427 30.3246 26.3427C33.1479 26.3427 35.4326 24.058 35.4326 21.2347C35.4326 18.4114 33.1479 16.1267 30.3246 16.1267ZM30.3246 23.5565C29.0429 23.5565 28.0028 22.5164 28.0028 21.2347C28.0028 19.9531 29.0429 18.9129 30.3246 18.9129C31.6062 18.9129 32.6464 19.9531 32.6464 21.2347C32.6464 22.5164 31.6062 23.5565 30.3246 23.5565Z" fill="white"/>
<path d="M30.3246 29.1288H13.6075C13.3474 29.1288 13.1431 28.9244 13.1431 28.6644V13.8047C13.1431 13.5447 13.3474 13.3404 13.6075 13.3404H30.3246C31.0861 13.3404 31.7176 12.7088 31.7176 11.9473C31.7176 11.1857 31.0861 10.5542 30.3246 10.5542H13.6075C11.8243 10.5542 10.3569 12.0216 10.3569 13.8047V28.6644C10.3569 30.4476 11.8243 31.9149 13.6075 31.9149H30.3246C31.0861 31.9149 31.7176 31.2834 31.7176 30.5219C31.7176 29.7603 31.0861 29.1288 30.3246 29.1288Z" fill="white"/>
</svg>
