<svg width="41" height="42" viewBox="0 0 41 42" fill="none" xmlns="http://www.w3.org/2000/svg">
<g clip-path="url(#clip0_50_11444)">
<path fill-rule="evenodd" clip-rule="evenodd" d="M24.4386 30.5482C24.3055 30.3708 24.2087 30.1689 24.1537 29.9541C24.0987 29.7393 24.0865 29.5158 24.1178 29.2962C24.1492 29.0767 24.2235 28.8655 24.3365 28.6747C24.4495 28.4839 24.5989 28.3172 24.7763 28.1842C27.4173 26.2034 28.9319 24.2767 29.7965 22.5949C28.6071 22.9011 27.3519 22.8291 26.2053 22.389C25.0587 21.9488 24.0777 21.1624 23.3986 20.1391C22.7196 19.1157 22.3762 17.9062 22.4162 16.6787C22.4563 15.4512 22.8778 14.2666 23.6221 13.2897C24.3664 12.3127 25.3966 11.592 26.5694 11.2275C27.7423 10.8631 28.9995 10.8731 30.1665 11.2561C31.3334 11.6392 32.352 12.3762 33.0806 13.3649C33.8093 14.3535 34.2119 15.5446 34.2324 16.7726C34.4488 18.8463 34.1543 20.9415 33.3746 22.8752C32.3666 25.4182 30.396 28.1909 26.8026 30.8859C26.6252 31.019 26.4234 31.1158 26.2085 31.1708C25.9937 31.2258 25.7702 31.238 25.5507 31.2067C25.3311 31.1753 25.1199 31.101 24.9291 30.988C24.7383 30.8751 24.5716 30.7256 24.4386 30.5482ZM11.6053 30.8859C11.4279 31.019 11.226 31.1158 11.0112 31.1708C10.7964 31.2258 10.5728 31.238 10.3533 31.2067C10.1338 31.1753 9.92258 31.101 9.73177 30.988C9.54096 30.8751 9.37427 30.7256 9.24122 30.5482C9.10817 30.3708 9.01137 30.1689 8.95633 29.9541C8.9013 29.7393 8.88911 29.5158 8.92047 29.2962C8.95183 29.0767 9.02613 28.8655 9.13911 28.6747C9.25209 28.4839 9.40154 28.3172 9.57894 28.1842C12.2199 26.2034 13.7346 24.2767 14.5991 22.5949C13.4097 22.9011 12.1545 22.8291 11.0079 22.389C9.8613 21.9488 8.88029 21.1624 8.20124 20.1391C7.52219 19.1157 7.17882 17.9062 7.21887 16.6787C7.25892 15.4512 7.6804 14.2666 8.42472 13.2897C9.16903 12.3127 10.1992 11.592 11.3721 11.2275C12.5449 10.8631 13.8022 10.8731 14.9691 11.2561C16.136 11.6392 17.1546 12.3762 17.8833 13.3649C18.612 14.3535 19.0146 15.5446 19.0351 16.7726C19.2513 18.8463 18.9568 20.9415 18.1773 22.8752C17.1675 25.4182 15.1986 28.1909 11.6053 30.8859ZM28.3224 19.4035C28.9496 19.4033 29.5545 19.1705 30.0199 18.75C30.4853 18.3295 30.7782 17.7512 30.8417 17.1272L30.8553 16.8537C30.8519 16.3534 30.7005 15.8654 30.4202 15.4511C30.1399 15.0368 29.7431 14.7148 29.28 14.5257C28.8169 14.3365 28.3082 14.2888 27.8179 14.3884C27.3277 14.488 26.878 14.7306 26.5254 15.0855C26.1729 15.4404 25.9333 15.8917 25.837 16.3826C25.7406 16.8735 25.7917 17.3819 25.9839 17.8437C26.1761 18.3056 26.5008 18.7002 26.9169 18.9777C27.3331 19.2553 27.8221 19.4034 28.3224 19.4035ZM13.125 19.4035C13.7522 19.4033 14.3571 19.1705 14.8226 18.75C15.288 18.3295 15.5808 17.7512 15.6444 17.1272L15.6579 16.8537C15.6546 16.3534 15.5032 15.8654 15.2228 15.4511C14.9425 15.0368 14.5458 14.7148 14.0826 14.5257C13.6195 14.3365 13.1108 14.2888 12.6206 14.3884C12.1304 14.488 11.6806 14.7306 11.3281 15.0855C10.9755 15.4404 10.736 15.8917 10.6396 16.3826C10.5432 16.8735 10.5944 17.3819 10.7866 17.8437C10.9788 18.3056 11.3034 18.7002 11.7196 18.9777C12.1357 19.2553 12.6248 19.4034 13.125 19.4035Z" fill="white"/>
</g>
<defs>
<clipPath id="clip0_50_11444">
<rect width="40.5263" height="40.5263" fill="white" transform="matrix(-1 0 0 -1 40.9868 41.3552)"/>
</clipPath>
</defs>
</svg>
