<svg width="659" height="610" viewBox="0 0 659 610" fill="none" xmlns="http://www.w3.org/2000/svg">
<g clip-path="url(#clip0_2004_534)">
<path d="M0.192383 50.3004C0.192383 22.5202 22.7126 0 50.4927 0H607.988C635.768 0 658.289 22.5202 658.289 50.3004V591.556C658.289 601.498 650.23 609.556 640.289 609.556H18.1924C8.25126 609.556 0.192383 601.498 0.192383 591.556V50.3004Z" fill="#282727"/>
<g clip-path="url(#clip1_2004_534)">
<g clip-path="url(#clip2_2004_534)">
<g clip-path="url(#clip3_2004_534)">
<mask id="mask0_2004_534" style="mask-type:luminance" maskUnits="userSpaceOnUse" x="15" y="-1" width="629" height="572">
<path d="M593.454 570.07H65.3004C37.5202 570.07 15 547.55 15 519.77V50.3C15 22.5199 37.5202 -0.000366211 65.3004 -0.000366211H593.454C621.234 -0.000366211 643.754 22.5199 643.754 50.3V519.77C643.754 547.55 621.234 570.07 593.454 570.07Z" fill="white"/>
</mask>
<g mask="url(#mask0_2004_534)">
<path d="M593.454 570.07H65.3004C37.5202 570.07 15 547.55 15 519.77V50.3C15 22.5199 37.5202 -0.000366211 65.3004 -0.000366211H593.454C621.234 -0.000366211 643.754 22.5199 643.754 50.3V519.77C643.754 547.55 621.234 570.07 593.454 570.07Z" fill="#282727"/>
<path d="M348.24 224.927H310.514C297.499 224.927 286.936 235.49 286.936 248.505V323.956C286.936 336.971 297.499 347.534 310.514 347.534H348.24C361.255 347.534 371.818 336.971 371.818 323.956V248.505C371.818 235.49 361.255 224.927 348.24 224.927ZM362.387 323.956C362.387 331.752 356.036 338.103 348.24 338.103H310.514C302.718 338.103 296.367 331.752 296.367 323.956V248.505C296.367 240.708 302.718 234.358 310.514 234.358H348.24C356.036 234.358 362.387 240.708 362.387 248.505V323.956Z" fill="#B5B4B4"/>
<path d="M348.24 237.502H310.514C304.478 237.502 299.511 242.47 299.511 248.506V261.081C299.511 267.117 304.478 272.084 310.514 272.084H348.24C354.276 272.084 359.243 267.117 359.243 261.081V248.506C359.243 242.47 354.276 237.502 348.24 237.502ZM349.812 261.081C349.812 261.961 349.12 262.653 348.24 262.653H310.514C309.634 262.653 308.943 261.961 308.943 261.081V248.506C308.943 247.625 309.634 246.934 310.514 246.934H348.24C349.12 246.934 349.812 247.625 349.812 248.506V261.081Z" fill="#B5B4B4"/>
<path d="M329.503 281.515H329.44C326.862 281.515 324.787 283.653 324.787 286.231C324.787 288.809 326.925 290.946 329.503 290.946C332.081 290.946 334.218 288.809 334.218 286.231C334.218 283.653 332.081 281.515 329.503 281.515Z" fill="#B5B4B4"/>
<path d="M329.503 300.377H329.44C326.862 300.377 324.787 302.515 324.787 305.093C324.787 307.671 326.925 309.809 329.503 309.809C332.081 309.809 334.218 307.671 334.218 305.093C334.218 302.515 332.081 300.377 329.503 300.377Z" fill="#B5B4B4"/>
<path d="M329.503 319.241H329.44C326.862 319.241 324.787 321.378 324.787 323.956C324.787 326.534 326.925 328.672 329.503 328.672C332.081 328.672 334.218 326.534 334.218 323.956C334.218 321.378 332.081 319.241 329.503 319.241Z" fill="#B5B4B4"/>
<path d="M348.366 281.515H348.303C345.725 281.515 343.65 283.653 343.65 286.231C343.65 288.809 345.788 290.946 348.366 290.946C350.943 290.946 353.081 288.809 353.081 286.231C353.081 283.653 350.943 281.515 348.366 281.515Z" fill="#B5B4B4"/>
<path d="M348.366 300.377H348.303C345.725 300.377 343.65 302.515 343.65 305.093C343.65 307.671 345.788 309.809 348.366 309.809C350.943 309.809 353.081 307.671 353.081 305.093C353.081 302.515 350.943 300.377 348.366 300.377Z" fill="#B5B4B4"/>
<path d="M348.366 319.241H348.303C345.725 319.241 343.65 321.378 343.65 323.956C343.65 326.534 345.788 328.672 348.366 328.672C350.943 328.672 353.081 326.534 353.081 323.956C353.081 321.378 350.943 319.241 348.366 319.241Z" fill="#B5B4B4"/>
<path d="M310.64 281.515H310.578C308 281.515 305.925 283.653 305.925 286.231C305.925 288.809 308.063 290.946 310.64 290.946C313.218 290.946 315.356 288.809 315.356 286.231C315.356 283.653 313.218 281.515 310.64 281.515Z" fill="#B5B4B4"/>
<path d="M310.64 300.377H310.578C308 300.377 305.925 302.515 305.925 305.093C305.925 307.671 308.063 309.809 310.64 309.809C313.218 309.809 315.356 307.671 315.356 305.093C315.356 302.515 313.218 300.377 310.64 300.377Z" fill="#B5B4B4"/>
<path d="M310.64 319.241H310.578C308 319.241 305.925 321.378 305.925 323.956C305.925 326.534 308.063 328.672 310.64 328.672C313.218 328.672 315.356 326.534 315.356 323.956C315.356 321.378 313.218 319.241 310.64 319.241Z" fill="#B5B4B4"/>
<path d="M351.302 203.559H307.454C283.752 203.559 264.537 222.774 264.537 246.476V325.691C264.537 349.394 283.752 368.608 307.454 368.608H351.302C375.004 368.608 394.219 349.394 394.219 325.691V246.476C394.219 222.774 375.004 203.559 351.302 203.559Z" stroke="#D3D3D3" stroke-opacity="0.08" stroke-width="3.92972"/>
<path d="M472.943 285.035C472.943 364.324 408.666 428.601 329.377 428.601C250.088 428.601 185.812 364.324 185.812 285.035C185.812 205.746 250.088 141.469 329.377 141.469C408.666 141.469 472.943 205.746 472.943 285.035Z" stroke="white" stroke-opacity="0.5" stroke-width="2.09585"/>
<path d="M525.339 285.035C525.339 393.262 437.604 480.997 329.377 480.997C221.151 480.997 133.416 393.262 133.416 285.035C133.416 176.809 221.151 89.0734 329.377 89.0734C437.604 89.0734 525.339 176.809 525.339 285.035Z" stroke="white" stroke-opacity="0.3" stroke-width="2.09585"/>
<path d="M577.736 285.036C577.736 422.2 466.542 533.394 329.378 533.394C192.213 533.394 81.0195 422.2 81.0195 285.036C81.0195 147.871 192.213 36.6776 329.378 36.6776C466.542 36.6776 577.736 147.871 577.736 285.036Z" stroke="white" stroke-opacity="0.2" stroke-width="2.09585"/>
<path d="M632.228 285.035C632.228 452.295 496.637 587.885 329.377 587.885C162.118 587.885 26.5273 452.295 26.5273 285.035C26.5273 117.776 162.118 -17.8149 329.377 -17.8149C496.637 -17.8149 632.228 117.776 632.228 285.035Z" stroke="white" stroke-opacity="0.1" stroke-width="2.09585"/>
<path d="M686.719 285.035C686.719 482.39 526.732 642.377 329.377 642.377C132.023 642.377 -27.9648 482.39 -27.9648 285.035C-27.9648 87.6807 132.023 -72.3068 329.377 -72.3068C526.732 -72.3068 686.719 87.6807 686.719 285.035Z" stroke="white" stroke-opacity="0.1" stroke-width="2.09585"/>
</g>
</g>
</g>
</g>
</g>
<defs>
<clipPath id="clip0_2004_534">
<path d="M0.192383 50.3004C0.192383 22.5202 22.7126 0 50.4927 0H607.988C635.768 0 658.289 22.5202 658.289 50.3004V591.556C658.289 601.498 650.23 609.556 640.289 609.556H18.1924C8.25126 609.556 0.192383 601.498 0.192383 591.556V50.3004Z" fill="white"/>
</clipPath>
<clipPath id="clip1_2004_534">
<rect width="628.754" height="570.071" fill="white" transform="translate(15)"/>
</clipPath>
<clipPath id="clip2_2004_534">
<rect width="628.754" height="570.071" fill="white" transform="translate(15)"/>
</clipPath>
<clipPath id="clip3_2004_534">
<rect width="628.754" height="570.071" fill="white" transform="translate(15)"/>
</clipPath>
</defs>
</svg>
